<svg width="22" height="24" viewBox="0 0 22 24" fill="none" xmlns="http://www.w3.org/2000/svg">
<path d="M16.7994 12.5973C16.7899 10.8767 17.5837 9.57803 19.1905 8.62161C18.2914 7.36044 16.9333 6.66656 15.14 6.5306C13.4423 6.39933 11.5869 7.50109 10.9078 7.50109C10.1905 7.50109 8.54543 6.57749 7.25425 6.57749C4.58581 6.61968 1.75 8.6638 1.75 12.8224C1.75 14.0507 1.97954 15.3197 2.43863 16.6293C3.05074 18.3499 5.2601 22.5695 7.56509 22.4991C8.77019 22.471 9.62141 21.6599 11.19 21.6599C12.7107 21.6599 13.4997 22.4991 14.8435 22.4991C17.1676 22.4663 19.1666 18.6312 19.75 16.9059C16.632 15.4666 16.7994 12.6864 16.7994 12.5973ZM14.0927 4.89906C15.3982 3.38003 15.2787 1.99697 15.2404 1.5C14.0879 1.56564 12.7537 2.26889 11.9934 3.13624C11.1565 4.06453 10.6639 5.21318 10.7691 6.50716C12.0173 6.60093 13.1554 5.97269 14.0927 4.89906Z" fill="white"/>
</svg>
