<svg width="187" height="46" viewBox="0 0 187 46" fill="none" xmlns="http://www.w3.org/2000/svg">
<rect x="0.25" y="0.5" width="186" height="45" rx="6" fill="#1E1E1E"/>
<path d="M40.7994 23.5973C40.7899 21.8767 41.5837 20.578 43.1905 19.6216C42.2914 18.3604 40.9333 17.6666 39.14 17.5306C37.4423 17.3993 35.5869 18.5011 34.9078 18.5011C34.1905 18.5011 32.5454 17.5775 31.2543 17.5775C28.5858 17.6197 25.75 19.6638 25.75 23.8224C25.75 25.0507 25.9795 26.3197 26.4386 27.6293C27.0507 29.3499 29.2601 33.5695 31.5651 33.4991C32.7702 33.471 33.6214 32.6599 35.19 32.6599C36.7107 32.6599 37.4997 33.4991 38.8435 33.4991C41.1676 33.4663 43.1666 29.6312 43.75 27.9059C40.632 26.4666 40.7994 23.6864 40.7994 23.5973ZM38.0927 15.8991C39.3982 14.38 39.2787 12.997 39.2404 12.5C38.0879 12.5656 36.7537 13.2689 35.9934 14.1362C35.1565 15.0645 34.6639 16.2132 34.7691 17.5072C36.0173 17.6009 37.1554 16.9727 38.0927 15.8991Z" fill="white"/>
<path d="M61.78 28C61.68 28 61.595 27.965 61.525 27.895C61.455 27.825 61.42 27.74 61.42 27.64V17.875C61.42 17.765 61.455 17.675 61.525 17.605C61.595 17.535 61.68 17.5 61.78 17.5H63.1C63.21 17.5 63.3 17.535 63.37 17.605C63.44 17.675 63.475 17.765 63.475 17.875V21.385L66.865 17.77C66.905 17.72 66.97 17.665 67.06 17.605C67.16 17.535 67.29 17.5 67.45 17.5H68.935C69.015 17.5 69.085 17.53 69.145 17.59C69.215 17.65 69.25 17.725 69.25 17.815C69.25 17.885 69.23 17.945 69.19 17.995L65.065 22.525L69.475 27.49C69.525 27.55 69.55 27.615 69.55 27.685C69.55 27.775 69.515 27.85 69.445 27.91C69.385 27.97 69.315 28 69.235 28H67.69C67.52 28 67.385 27.965 67.285 27.895C67.195 27.815 67.135 27.76 67.105 27.73L63.475 23.755V27.64C63.475 27.74 63.44 27.825 63.37 27.895C63.3 27.965 63.21 28 63.1 28H61.78ZM73.7281 28.15C72.9281 28.15 72.2531 28.01 71.7031 27.73C71.1631 27.45 70.7481 27.055 70.4581 26.545C70.1781 26.035 70.0181 25.44 69.9781 24.76C69.9681 24.58 69.9631 24.36 69.9631 24.1C69.9631 23.84 69.9681 23.62 69.9781 23.44C70.0181 22.75 70.1831 22.155 70.4731 21.655C70.7731 21.145 71.1931 20.75 71.7331 20.47C72.2831 20.19 72.9481 20.05 73.7281 20.05C74.5081 20.05 75.1681 20.19 75.7081 20.47C76.2581 20.75 76.6781 21.145 76.9681 21.655C77.2681 22.155 77.4381 22.75 77.4781 23.44C77.4881 23.62 77.4931 23.84 77.4931 24.1C77.4931 24.36 77.4881 24.58 77.4781 24.76C77.4381 25.44 77.2731 26.035 76.9831 26.545C76.7031 27.055 76.2881 27.45 75.7381 27.73C75.1981 28.01 74.5281 28.15 73.7281 28.15ZM73.7281 26.665C74.2581 26.665 74.6681 26.5 74.9581 26.17C75.2481 25.83 75.4081 25.335 75.4381 24.685C75.4481 24.535 75.4531 24.34 75.4531 24.1C75.4531 23.86 75.4481 23.665 75.4381 23.515C75.4081 22.875 75.2481 22.385 74.9581 22.045C74.6681 21.705 74.2581 21.535 73.7281 21.535C73.1981 21.535 72.7881 21.705 72.4981 22.045C72.2081 22.385 72.0481 22.875 72.0181 23.515C72.0081 23.665 72.0031 23.86 72.0031 24.1C72.0031 24.34 72.0081 24.535 72.0181 24.685C72.0481 25.335 72.2081 25.83 72.4981 26.17C72.7881 26.5 73.1981 26.665 73.7281 26.665ZM79.515 28C79.415 28 79.33 27.965 79.26 27.895C79.19 27.825 79.155 27.74 79.155 27.64V20.56C79.155 20.46 79.19 20.375 79.26 20.305C79.33 20.235 79.415 20.2 79.515 20.2H80.685C80.785 20.2 80.87 20.235 80.94 20.305C81.01 20.375 81.045 20.46 81.045 20.56V21.07C81.255 20.79 81.535 20.555 81.885 20.365C82.245 20.165 82.67 20.06 83.16 20.05C84.3 20.03 85.095 20.475 85.545 21.385C85.775 20.985 86.105 20.665 86.535 20.425C86.975 20.175 87.46 20.05 87.99 20.05C88.51 20.05 88.98 20.17 89.4 20.41C89.83 20.65 90.165 21.015 90.405 21.505C90.655 21.985 90.78 22.595 90.78 23.335V27.64C90.78 27.74 90.745 27.825 90.675 27.895C90.605 27.965 90.52 28 90.42 28H89.19C89.09 28 89.005 27.965 88.935 27.895C88.865 27.825 88.83 27.74 88.83 27.64V23.455C88.83 23.005 88.765 22.65 88.635 22.39C88.505 22.12 88.33 21.93 88.11 21.82C87.89 21.71 87.645 21.655 87.375 21.655C87.155 21.655 86.935 21.71 86.715 21.82C86.495 21.93 86.315 22.12 86.175 22.39C86.035 22.65 85.965 23.005 85.965 23.455V27.64C85.965 27.74 85.93 27.825 85.86 27.895C85.79 27.965 85.705 28 85.605 28H84.375C84.265 28 84.175 27.965 84.105 27.895C84.045 27.825 84.015 27.74 84.015 27.64V23.455C84.015 23.005 83.945 22.65 83.805 22.39C83.665 22.12 83.485 21.93 83.265 21.82C83.045 21.71 82.81 21.655 82.56 21.655C82.33 21.655 82.105 21.715 81.885 21.835C81.665 21.945 81.485 22.13 81.345 22.39C81.205 22.65 81.135 23.005 81.135 23.455V27.64C81.135 27.74 81.1 27.825 81.03 27.895C80.96 27.965 80.875 28 80.775 28H79.515ZM93.0502 28C92.9502 28 92.8652 27.965 92.7952 27.895C92.7252 27.825 92.6902 27.74 92.6902 27.64V20.56C92.6902 20.46 92.7252 20.375 92.7952 20.305C92.8652 20.235 92.9502 20.2 93.0502 20.2H94.2202C94.3202 20.2 94.4052 20.235 94.4752 20.305C94.5452 20.375 94.5802 20.46 94.5802 20.56V21.07C94.7902 20.79 95.0702 20.555 95.4202 20.365C95.7802 20.165 96.2052 20.06 96.6952 20.05C97.8352 20.03 98.6302 20.475 99.0802 21.385C99.3102 20.985 99.6402 20.665 100.07 20.425C100.51 20.175 100.995 20.05 101.525 20.05C102.045 20.05 102.515 20.17 102.935 20.41C103.365 20.65 103.7 21.015 103.94 21.505C104.19 21.985 104.315 22.595 104.315 23.335V27.64C104.315 27.74 104.28 27.825 104.21 27.895C104.14 27.965 104.055 28 103.955 28H102.725C102.625 28 102.54 27.965 102.47 27.895C102.4 27.825 102.365 27.74 102.365 27.64V23.455C102.365 23.005 102.3 22.65 102.17 22.39C102.04 22.12 101.865 21.93 101.645 21.82C101.425 21.71 101.18 21.655 100.91 21.655C100.69 21.655 100.47 21.71 100.25 21.82C100.03 21.93 99.8502 22.12 99.7102 22.39C99.5702 22.65 99.5002 23.005 99.5002 23.455V27.64C99.5002 27.74 99.4652 27.825 99.3952 27.895C99.3252 27.965 99.2402 28 99.1402 28H97.9102C97.8002 28 97.7102 27.965 97.6402 27.895C97.5802 27.825 97.5502 27.74 97.5502 27.64V23.455C97.5502 23.005 97.4802 22.65 97.3402 22.39C97.2002 22.12 97.0202 21.93 96.8002 21.82C96.5802 21.71 96.3452 21.655 96.0952 21.655C95.8652 21.655 95.6402 21.715 95.4202 21.835C95.2002 21.945 95.0202 22.13 94.8802 22.39C94.7402 22.65 94.6702 23.005 94.6702 23.455V27.64C94.6702 27.74 94.6352 27.825 94.5652 27.895C94.4952 27.965 94.4102 28 94.3102 28H93.0502ZM109.585 28.15C108.475 28.15 107.595 27.83 106.945 27.19C106.295 26.55 105.945 25.64 105.895 24.46C105.885 24.36 105.88 24.235 105.88 24.085C105.88 23.925 105.885 23.8 105.895 23.71C105.935 22.96 106.105 22.31 106.405 21.76C106.715 21.21 107.14 20.79 107.68 20.5C108.22 20.2 108.855 20.05 109.585 20.05C110.395 20.05 111.075 20.22 111.625 20.56C112.175 20.89 112.59 21.355 112.87 21.955C113.15 22.545 113.29 23.23 113.29 24.01V24.325C113.29 24.425 113.255 24.51 113.185 24.58C113.115 24.65 113.025 24.685 112.915 24.685H107.935C107.935 24.685 107.935 24.7 107.935 24.73C107.935 24.76 107.935 24.785 107.935 24.805C107.945 25.155 108.01 25.48 108.13 25.78C108.26 26.07 108.445 26.305 108.685 26.485C108.935 26.665 109.23 26.755 109.57 26.755C109.85 26.755 110.085 26.715 110.275 26.635C110.465 26.545 110.62 26.445 110.74 26.335C110.86 26.225 110.945 26.135 110.995 26.065C111.085 25.945 111.155 25.875 111.205 25.855C111.265 25.825 111.35 25.81 111.46 25.81H112.75C112.85 25.81 112.93 25.84 112.99 25.9C113.06 25.96 113.09 26.035 113.08 26.125C113.07 26.285 112.985 26.48 112.825 26.71C112.675 26.94 112.455 27.165 112.165 27.385C111.875 27.605 111.51 27.79 111.07 27.94C110.64 28.08 110.145 28.15 109.585 28.15ZM107.935 23.425H111.25V23.38C111.25 22.99 111.185 22.65 111.055 22.36C110.925 22.07 110.735 21.84 110.485 21.67C110.235 21.5 109.935 21.415 109.585 21.415C109.235 21.415 108.935 21.5 108.685 21.67C108.435 21.84 108.245 22.07 108.115 22.36C107.995 22.65 107.935 22.99 107.935 23.38V23.425ZM115.243 28C115.143 28 115.058 27.965 114.988 27.895C114.918 27.825 114.883 27.74 114.883 27.64V20.575C114.883 20.465 114.918 20.375 114.988 20.305C115.058 20.235 115.143 20.2 115.243 20.2H116.458C116.558 20.2 116.643 20.235 116.713 20.305C116.793 20.375 116.833 20.465 116.833 20.575V21.19C117.063 20.87 117.358 20.625 117.718 20.455C118.088 20.285 118.513 20.2 118.993 20.2H119.608C119.718 20.2 119.803 20.235 119.863 20.305C119.933 20.375 119.968 20.46 119.968 20.56V21.64C119.968 21.74 119.933 21.825 119.863 21.895C119.803 21.965 119.718 22 119.608 22H118.438C117.958 22 117.583 22.135 117.313 22.405C117.053 22.675 116.923 23.045 116.923 23.515V27.64C116.923 27.74 116.888 27.825 116.818 27.895C116.748 27.965 116.658 28 116.548 28H115.243ZM127.198 28.15C126.598 28.15 126.083 28.08 125.653 27.94C125.233 27.8 124.888 27.625 124.618 27.415C124.348 27.205 124.148 26.995 124.018 26.785C123.888 26.575 123.818 26.4 123.808 26.26C123.798 26.15 123.828 26.065 123.898 26.005C123.978 25.935 124.063 25.9 124.153 25.9H125.338C125.378 25.9 125.413 25.905 125.443 25.915C125.473 25.925 125.513 25.955 125.563 26.005C125.693 26.115 125.828 26.23 125.968 26.35C126.118 26.47 126.293 26.575 126.493 26.665C126.693 26.745 126.943 26.785 127.243 26.785C127.633 26.785 127.958 26.71 128.218 26.56C128.488 26.4 128.623 26.175 128.623 25.885C128.623 25.675 128.563 25.505 128.443 25.375C128.333 25.245 128.123 25.13 127.813 25.03C127.503 24.92 127.063 24.805 126.493 24.685C125.933 24.555 125.468 24.39 125.098 24.19C124.728 23.99 124.453 23.74 124.273 23.44C124.093 23.14 124.003 22.79 124.003 22.39C124.003 22 124.118 21.63 124.348 21.28C124.588 20.92 124.938 20.625 125.398 20.395C125.868 20.165 126.448 20.05 127.138 20.05C127.678 20.05 128.148 20.12 128.548 20.26C128.948 20.39 129.278 20.555 129.538 20.755C129.808 20.955 130.013 21.16 130.153 21.37C130.293 21.57 130.368 21.745 130.378 21.895C130.388 22.005 130.358 22.095 130.288 22.165C130.218 22.225 130.138 22.255 130.048 22.255H128.938C128.888 22.255 128.843 22.245 128.803 22.225C128.763 22.205 128.723 22.18 128.683 22.15C128.573 22.05 128.453 21.945 128.323 21.835C128.193 21.725 128.033 21.63 127.843 21.55C127.663 21.46 127.423 21.415 127.123 21.415C126.743 21.415 126.453 21.5 126.253 21.67C126.053 21.83 125.953 22.035 125.953 22.285C125.953 22.455 125.998 22.605 126.088 22.735C126.188 22.855 126.383 22.97 126.673 23.08C126.963 23.19 127.403 23.305 127.993 23.425C128.663 23.545 129.193 23.725 129.583 23.965C129.983 24.195 130.263 24.465 130.423 24.775C130.593 25.075 130.678 25.41 130.678 25.78C130.678 26.23 130.543 26.635 130.273 26.995C130.013 27.355 129.623 27.64 129.103 27.85C128.593 28.05 127.958 28.15 127.198 28.15ZM132.586 28C132.486 28 132.401 27.965 132.331 27.895C132.261 27.825 132.226 27.74 132.226 27.64V20.56C132.226 20.46 132.261 20.375 132.331 20.305C132.401 20.235 132.486 20.2 132.586 20.2H133.816C133.916 20.2 134.001 20.235 134.071 20.305C134.141 20.375 134.176 20.46 134.176 20.56V21.175C134.436 20.855 134.766 20.59 135.166 20.38C135.576 20.16 136.081 20.05 136.681 20.05C137.291 20.05 137.821 20.19 138.271 20.47C138.721 20.74 139.066 21.125 139.306 21.625C139.556 22.125 139.681 22.725 139.681 23.425V27.64C139.681 27.74 139.646 27.825 139.576 27.895C139.506 27.965 139.421 28 139.321 28H138.001C137.901 28 137.816 27.965 137.746 27.895C137.676 27.825 137.641 27.74 137.641 27.64V23.515C137.641 22.935 137.496 22.48 137.206 22.15C136.926 21.82 136.516 21.655 135.976 21.655C135.456 21.655 135.041 21.82 134.731 22.15C134.421 22.48 134.266 22.935 134.266 23.515V27.64C134.266 27.74 134.231 27.825 134.161 27.895C134.091 27.965 134.006 28 133.906 28H132.586ZM143.852 28.15C143.332 28.15 142.862 28.05 142.442 27.85C142.022 27.64 141.687 27.365 141.437 27.025C141.197 26.675 141.077 26.285 141.077 25.855C141.077 25.155 141.357 24.6 141.917 24.19C142.487 23.77 143.237 23.49 144.167 23.35L146.222 23.05V22.735C146.222 22.315 146.117 21.99 145.907 21.76C145.697 21.53 145.337 21.415 144.827 21.415C144.467 21.415 144.172 21.49 143.942 21.64C143.722 21.78 143.557 21.97 143.447 22.21C143.367 22.34 143.252 22.405 143.102 22.405H141.917C141.807 22.405 141.722 22.375 141.662 22.315C141.612 22.255 141.587 22.175 141.587 22.075C141.597 21.915 141.662 21.72 141.782 21.49C141.902 21.26 142.092 21.04 142.352 20.83C142.612 20.61 142.947 20.425 143.357 20.275C143.767 20.125 144.262 20.05 144.842 20.05C145.472 20.05 146.002 20.13 146.432 20.29C146.872 20.44 147.222 20.645 147.482 20.905C147.742 21.165 147.932 21.47 148.052 21.82C148.172 22.17 148.232 22.54 148.232 22.93V27.64C148.232 27.74 148.197 27.825 148.127 27.895C148.057 27.965 147.972 28 147.872 28H146.657C146.547 28 146.457 27.965 146.387 27.895C146.327 27.825 146.297 27.74 146.297 27.64V27.055C146.167 27.245 145.992 27.425 145.772 27.595C145.552 27.755 145.282 27.89 144.962 28C144.652 28.1 144.282 28.15 143.852 28.15ZM144.362 26.725C144.712 26.725 145.027 26.65 145.307 26.5C145.597 26.35 145.822 26.12 145.982 25.81C146.152 25.49 146.237 25.09 146.237 24.61V24.295L144.737 24.535C144.147 24.625 143.707 24.77 143.417 24.97C143.127 25.17 142.982 25.415 142.982 25.705C142.982 25.925 143.047 26.115 143.177 26.275C143.317 26.425 143.492 26.54 143.702 26.62C143.912 26.69 144.132 26.725 144.362 26.725ZM150.516 28C150.416 28 150.331 27.965 150.261 27.895C150.191 27.825 150.156 27.74 150.156 27.64V20.575C150.156 20.465 150.191 20.375 150.261 20.305C150.331 20.235 150.416 20.2 150.516 20.2H151.731C151.831 20.2 151.916 20.235 151.986 20.305C152.066 20.375 152.106 20.465 152.106 20.575V21.19C152.336 20.87 152.631 20.625 152.991 20.455C153.361 20.285 153.786 20.2 154.266 20.2H154.881C154.991 20.2 155.076 20.235 155.136 20.305C155.206 20.375 155.241 20.46 155.241 20.56V21.64C155.241 21.74 155.206 21.825 155.136 21.895C155.076 21.965 154.991 22 154.881 22H153.711C153.231 22 152.856 22.135 152.586 22.405C152.326 22.675 152.196 23.045 152.196 23.515V27.64C152.196 27.74 152.161 27.825 152.091 27.895C152.021 27.965 151.931 28 151.821 28H150.516ZM159.936 28C159.336 28 158.831 27.895 158.421 27.685C158.011 27.475 157.706 27.165 157.506 26.755C157.306 26.335 157.206 25.815 157.206 25.195V21.79H156.021C155.921 21.79 155.836 21.755 155.766 21.685C155.696 21.615 155.661 21.53 155.661 21.43V20.56C155.661 20.46 155.696 20.375 155.766 20.305C155.836 20.235 155.921 20.2 156.021 20.2H157.206V17.71C157.206 17.61 157.236 17.525 157.296 17.455C157.366 17.385 157.456 17.35 157.566 17.35H158.781C158.881 17.35 158.966 17.385 159.036 17.455C159.106 17.525 159.141 17.61 159.141 17.71V20.2H161.016C161.116 20.2 161.201 20.235 161.271 20.305C161.341 20.375 161.376 20.46 161.376 20.56V21.43C161.376 21.53 161.341 21.615 161.271 21.685C161.201 21.755 161.116 21.79 161.016 21.79H159.141V25.045C159.141 25.455 159.211 25.775 159.351 26.005C159.501 26.235 159.756 26.35 160.116 26.35H161.151C161.251 26.35 161.336 26.385 161.406 26.455C161.476 26.525 161.511 26.61 161.511 26.71V27.64C161.511 27.74 161.476 27.825 161.406 27.895C161.336 27.965 161.251 28 161.151 28H159.936Z" fill="white"/>
</svg>
