<svg width="814" height="801" viewBox="0 0 814 801" fill="none" xmlns="http://www.w3.org/2000/svg">
<path opacity="0.2" d="M704.75 752.25C768.276 752.25 832.49 688.737 808.673 610.589C805.053 598.704 799.374 587.633 792.142 577.778C772.111 550.476 740.157 532.5 706.989 532.5C694.81 532.5 682.473 534.921 670.497 540.193C613.273 565.378 591.854 640.764 619.494 695.461C639.734 735.518 672.155 752.25 704.75 752.25Z" fill="url(#paint0_linear_1_587)"/>
<path opacity="0.2" d="M336.282 112.417C332.162 117.369 329.071 123.225 327.329 130.179C323.004 147.435 327.638 164.697 334.2 179.739C348.213 211.852 370.884 238.317 384.265 270.792C397.648 303.267 399.553 346.608 375.131 376.183C375.067 376.26 375 376.341 374.935 376.419C355.473 399.803 325.526 407.866 298.003 415.382C234.529 432.713 171.697 454.83 110.157 481.5C81.0191 494.13 50.3822 509.373 29.5426 534.414C25.9366 538.746 22.6238 543.367 19.6636 548.327C-10.0471 598.065 -7.03433 694.847 35.1721 725.606C51.9737 737.851 73.3413 742.359 94.6932 743.208C149.145 745.371 205.822 725.374 259.429 732.129C337.469 741.967 400.189 807.34 480.391 799.621C518.485 795.954 545.878 777.54 567.635 751.399C587.576 727.44 602.786 696.999 617.18 665.45C639.76 615.972 652.664 560.781 655.164 507.129C655.268 504.918 655.336 502.709 655.368 500.493C656.473 428.94 621.384 348.664 668.476 278.503C671.449 274.076 674.722 269.758 678.234 265.541C692.983 247.819 711.985 231.741 731.067 215.565C750.146 199.389 769.308 183.118 784.372 165.018C804.966 140.274 817.907 112.113 812.53 76.094C804.058 19.334 751.942 -2.39727 701.507 0.207485C659.573 2.37873 619.999 23.21 581.435 43.193C540.4 64.4585 497.616 78.0875 453.848 82.8192C424.881 85.9527 361.427 82.2125 336.282 112.417Z" fill="url(#paint1_linear_1_587)"/>
<path opacity="0.2" d="M113.824 527.574C113.929 527.758 114.026 527.929 114.13 528.113C170.926 627.386 278.999 696.839 385.899 727.521C430.155 740.225 478.637 745.987 521.438 728.673C599.894 696.932 629.223 603.185 590.53 535.282C583.848 523.555 575.145 512.609 564.309 502.872C542.003 482.835 516.343 464.596 501.612 438.745C499.926 435.786 498.384 432.733 497.007 429.562C483.859 399.304 488.259 364.551 490.944 331.532C495.508 275.388 494.11 217.514 474.779 164.796C470.59 153.372 465.539 142.535 459.751 132.378C406.497 38.9196 290.245 1.58126 195.548 65.872C134.877 107.065 102.159 178.673 82.3461 247.746C55.1665 342.497 65.1049 442.076 113.824 527.574Z" fill="url(#paint2_linear_1_587)"/>
<defs>
<linearGradient id="paint0_linear_1_587" x1="710.626" y1="752.25" x2="710.626" y2="532.5" gradientUnits="userSpaceOnUse">
<stop stop-color="#5B8B7C"/>
<stop offset="1" stop-color="#5B8B7C" stop-opacity="0"/>
</linearGradient>
<linearGradient id="paint1_linear_1_587" x1="406.875" y1="0" x2="406.875" y2="800.253" gradientUnits="userSpaceOnUse">
<stop stop-color="#5B8B7C"/>
<stop offset="1" stop-color="#5B8B7C" stop-opacity="0"/>
</linearGradient>
<linearGradient id="paint2_linear_1_587" x1="337.5" y1="33.75" x2="337.5" y2="739.5" gradientUnits="userSpaceOnUse">
<stop stop-color="#5B8B7C"/>
<stop offset="1" stop-color="#5B8B7C" stop-opacity="0"/>
</linearGradient>
</defs>
</svg>
