<svg width="1920" height="1080" viewBox="0 0 1920 1080" fill="none" xmlns="http://www.w3.org/2000/svg">
<rect x="0.112793" y="6.0144" width="1919.89" height="1073.98" fill="#F9F8E0"/>
<path opacity="0.3" d="M199.321 189.016C199.321 189.016 436.074 478.527 273.983 599.775C67.159 754.483 499.663 757.123 719.695 798.995C939.728 840.866 1319.63 300.21 1478.26 567.103C1585.36 747.313 1716.67 1014.86 1920 852.027V1079.99H1.11182V6.0144L199.321 189.016Z" fill="url(#paint0_linear_154_87)"/>
<path opacity="0.3" d="M1919 307.769C1919 307.769 1554.22 166.959 1534.62 581.925C1522.09 847.351 1263.75 944.461 839.63 653.44C532.145 442.451 464.843 1080 464.843 1080H1919V307.769Z" fill="url(#paint1_linear_154_87)"/>
<path opacity="0.3" d="M80.7496 530.534C353.004 530.56 184.663 886.089 398.132 919.787C415.927 922.596 432.738 923.892 448.705 923.892C544.957 923.892 617.185 820.805 666.727 753.171C711.507 692.04 840.075 562.516 925.281 562.516C926.402 562.516 927.539 562.524 928.669 562.541C1136.64 565.577 1063.03 974.022 1222.41 974.022C1264.63 974.022 1332.53 894.706 1406.68 864.888C1449.32 847.741 1488.41 840.445 1524.07 840.445C1728.38 840.445 1820.06 1080 1820.06 1080H1.11182V538.684C31.2024 533.107 57.5591 530.531 80.7496 530.534Z" fill="url(#paint2_linear_154_87)"/>
<path fill-rule="evenodd" clip-rule="evenodd" d="M0.112793 990.938C0.112793 990.938 185.901 1079.99 441.857 1079.99C579.761 1079.99 738.033 1035.46 898.592 1035.46C1031.36 1035.46 1165.69 1079.99 1291.36 1079.99C1469.84 1079.99 1630.85 990.938 1745.1 990.938C1852.85 990.938 1919 1062.18 1919 1062.18V1079.99H0.112793V990.938Z" fill="white"/>
<path fill-rule="evenodd" clip-rule="evenodd" d="M1919.89 208.385C1919.89 208.385 1823.23 16.0297 1479.66 6.01116C1341.78 6.01116 1226.28 93.8905 1065.75 93.8905C933.006 93.8905 753.176 6.01116 627.527 6.01116C449.078 6.01116 396.878 93.8905 282.65 93.8905C62.6629 -52.7641 -6.86646e-05 139.591 -6.86646e-05 139.591V5.29289e-05L1919.89 6.01116V208.385Z" fill="white"/>
<defs>
<linearGradient id="paint0_linear_154_87" x1="960.556" y1="6.0144" x2="960.556" y2="1079.99" gradientUnits="userSpaceOnUse">
<stop stop-color="#CB6F41" stop-opacity="0"/>
<stop offset="1" stop-color="#CB6F41"/>
</linearGradient>
<linearGradient id="paint1_linear_154_87" x1="1191.92" y1="284.754" x2="1191.92" y2="1080" gradientUnits="userSpaceOnUse">
<stop stop-color="#CB6F41"/>
<stop offset="1" stop-color="white"/>
</linearGradient>
<linearGradient id="paint2_linear_154_87" x1="910.587" y1="530.534" x2="910.587" y2="1080" gradientUnits="userSpaceOnUse">
<stop stop-color="#CB6F41"/>
<stop offset="1" stop-color="white"/>
</linearGradient>
</defs>
</svg>
