<svg width="14" height="16" viewBox="0 0 14 16" fill="none" xmlns="http://www.w3.org/2000/svg">
<path d="M9.75 0.75C9.9337 0.750024 10.111 0.817467 10.2483 0.939537C10.3856 1.06161 10.4733 1.22981 10.4948 1.41225L10.5 1.5V2.25H11.25C11.8239 2.24997 12.3761 2.46924 12.7937 2.86296C13.2113 3.25668 13.4626 3.79508 13.4963 4.368L13.5 4.5V13.5C13.5 14.0739 13.2808 14.6261 12.887 15.0437C12.4933 15.4613 11.9549 15.7126 11.382 15.7463L11.25 15.75H2.25C1.67609 15.75 1.12386 15.5308 0.706304 15.137C0.288745 14.7433 0.0374194 14.2049 0.00375009 13.632L3.49534e-09 13.5V4.5C-3.19663e-05 3.92609 0.219244 3.37386 0.612963 2.9563C1.00668 2.53874 1.54508 2.28742 2.118 2.25375L2.25 2.25H3V1.5C3.00021 1.30884 3.07341 1.12498 3.20464 0.985974C3.33586 0.846972 3.51521 0.763324 3.70605 0.752121C3.89688 0.740918 4.08478 0.803006 4.23137 0.925699C4.37796 1.04839 4.47217 1.22243 4.49475 1.41225L4.5 1.5V2.25H9V1.5C9 1.30109 9.07902 1.11032 9.21967 0.96967C9.36032 0.829018 9.55109 0.75 9.75 0.75ZM12 6H1.5V13.2188C1.5 13.7475 1.7895 14.1832 2.16225 14.2432L2.25 14.25H11.25C11.6348 14.25 11.952 13.8525 11.9948 13.3387L12 13.2188V6Z" fill="#B95047"/>
</svg>
