<svg width="27" height="27" viewBox="0 0 27 27" fill="none" xmlns="http://www.w3.org/2000/svg">
<path d="M13.5 3C15.7874 3 17.9812 3.9217 19.5986 5.5625C21.2161 7.20344 22.125 9.42936 22.125 11.75C22.125 15.164 19.9826 18.2211 18.0078 20.3359C17.0027 21.4123 15.9999 22.2877 15.25 22.8936C14.8746 23.1968 14.5607 23.4341 14.3389 23.5967C14.2279 23.678 14.1394 23.7411 14.0781 23.7842C14.0476 23.8057 14.0236 23.8224 14.0068 23.834L13.9873 23.8477L13.9814 23.8516L13.9795 23.8525L13.5 23.125L13.9785 23.8535C13.6888 24.0494 13.3112 24.0484 13.0215 23.8525L13.0186 23.8516L13.0127 23.8477L12.9932 23.834C12.9764 23.8224 12.9524 23.8057 12.9219 23.7842C12.8606 23.7411 12.7721 23.678 12.6611 23.5967C12.4393 23.4341 12.1254 23.1968 11.75 22.8936C11.0001 22.2877 9.99729 21.4123 8.99219 20.3359C7.01735 18.2211 4.875 15.164 4.875 11.75C4.87502 9.42936 5.78388 7.20344 7.40137 5.5625C9.01884 3.9217 11.2126 3 13.5 3ZM13.5 4.75C11.6701 4.75 9.91507 5.48723 8.62109 6.7998C7.32711 8.11255 6.59963 9.8935 6.59961 11.75C6.59961 14.4608 8.33881 17.0914 10.2451 19.1328C11.1805 20.1345 12.1187 20.9545 12.8242 21.5244C13.0867 21.7365 13.3163 21.9131 13.5 22.0508C13.6837 21.9131 13.9133 21.7365 14.1758 21.5244C14.8813 20.9545 15.8195 20.1345 16.7549 19.1328C18.6612 17.0914 20.4004 14.4608 20.4004 11.75C20.4004 9.8935 19.6729 8.11255 18.3789 6.7998C17.0849 5.48723 15.3299 4.75 13.5 4.75ZM13.5 8.25C15.4053 8.25004 16.9502 9.81703 16.9502 11.75C16.9502 13.683 15.4053 15.25 13.5 15.25C11.5946 15.25 10.0498 13.683 10.0498 11.75C10.0498 9.817 11.5946 8.25 13.5 8.25ZM13.5 10C12.5473 10 11.7754 10.7835 11.7754 11.75C11.7754 12.7165 12.5473 13.5 13.5 13.5C14.4527 13.5 15.2246 12.7165 15.2246 11.75C15.2246 10.7835 14.4526 10 13.5 10Z" fill="#5B8B7C"/>
</svg>
