<svg width="27" height="27" viewBox="0 0 27 27" fill="none" xmlns="http://www.w3.org/2000/svg">
<path d="M21.1367 5.25C22.6772 5.25022 23.9365 6.4292 23.9941 7.89551C23.998 7.928 23.9988 7.96063 23.999 7.99316C23.999 7.99544 24 7.99772 24 8V19C24 20.5145 22.7137 21.7498 21.1367 21.75H5.86328C4.28629 21.7498 3 20.5145 3 19V7.98438C3.0005 7.95476 3.00236 7.92508 3.00586 7.89551C3.06347 6.42919 4.32277 5.2502 5.86328 5.25H21.1367ZM14.0479 15.168C13.7192 15.3889 13.2808 15.3889 12.9521 15.168L4.90918 9.75977V19C4.90918 19.5019 5.34065 19.9168 5.86328 19.917H21.1367C21.6593 19.9168 22.0908 19.5019 22.0908 19V9.75977L14.0479 15.168ZM5.86328 7.08301C5.4932 7.08316 5.16858 7.29125 5.01074 7.59082L13.5 13.2979L21.9883 7.59082C21.8304 7.29147 21.5066 7.08317 21.1367 7.08301H5.86328Z" fill="#5B8B7C"/>
</svg>
