<svg width="34" height="34" viewBox="0 0 34 34" fill="none" xmlns="http://www.w3.org/2000/svg">
<path d="M22.3779 2C24.3749 2 25.9999 3.62926 26 5.63184V28.3682C25.9999 30.3704 24.3749 32 22.3779 32H11.6221C9.62512 32 8.00006 30.3708 8 28.3682V5.63184C8.00006 3.62926 9.62507 2 11.6221 2H22.3779ZM10.1729 28.3682C10.1729 29.1828 10.8098 29.8213 11.6221 29.8213H22.3779C23.1902 29.8213 23.8271 29.1828 23.8271 28.3682V26.2617H10.1729V28.3682ZM10.1729 24.082H23.8271V8.82812H10.1729V24.082ZM11.6221 4.17871C10.8098 4.17871 10.1729 4.81726 10.1729 5.63184V6.64844H23.8271V5.63184C23.8271 4.81726 23.1902 4.17871 22.3779 4.17871H11.6221Z" fill="#E58062"/>
</svg>
