<svg width="27" height="27" viewBox="0 0 27 27" fill="none" xmlns="http://www.w3.org/2000/svg">
<path d="M21.1286 24C21.0384 24 20.9482 23.9971 20.859 23.9885C17.7601 23.6524 14.7524 22.5845 12.1467 20.8971C9.73376 19.3667 7.64131 17.279 6.10243 14.8609C4.41197 12.2569 3.34224 9.24024 3.0122 6.14598C2.94217 5.36738 3.1753 4.62231 3.66747 4.03238C4.16061 3.44341 4.85329 3.08045 5.61889 3.01149C5.70524 3.00383 5.79063 3 5.87601 3H8.75422C10.1991 3 11.4242 4.06207 11.6228 5.47177C11.736 6.32698 11.9442 7.16112 12.2436 7.96174C12.6369 9.00657 12.3827 10.196 11.595 10.9909L10.9033 11.6804C12.0315 13.4464 13.5339 14.9461 15.3021 16.0723L15.99 15.3857C16.7834 14.6023 17.9894 14.3447 19.0294 14.7335C19.8267 15.0323 20.6633 15.2401 21.5152 15.3522C22.9716 15.5552 24.0355 16.8088 23.9991 18.2692V21.1183C24.002 21.8826 23.7055 22.6047 23.1644 23.1496C22.6233 23.6945 21.9018 23.9962 21.1324 23.999C21.1305 24 21.1295 24 21.1286 24ZM8.77244 4.91536H5.87601C5.53639 4.94217 5.30517 5.06284 5.14111 5.25917C4.97706 5.45549 4.89934 5.70449 4.92237 5.95923C5.21786 8.74129 6.18494 11.4668 7.7171 13.8275C9.11015 16.0158 10.9992 17.9015 13.1828 19.2863C15.5449 20.8157 18.2628 21.7801 21.0518 22.0827L21.1286 23.0423L21.1247 22.0846C21.3818 22.0837 21.6217 21.9841 21.8021 21.8021C21.9824 21.6202 22.0812 21.3798 22.0803 21.1231V18.2463C22.0928 17.7358 21.7387 17.3183 21.2571 17.2512C20.2689 17.121 19.2904 16.8768 18.3578 16.5282C18.0105 16.3999 17.6066 16.4851 17.3437 16.7446L16.1291 17.957C15.8231 18.2616 15.3491 18.3248 14.9769 18.1122C12.4258 16.6642 10.3113 14.5534 8.86071 12.007C8.64676 11.6316 8.71104 11.1613 9.01613 10.8558L10.2346 9.63959C10.4936 9.37815 10.578 8.98167 10.4466 8.63307C10.0964 7.6955 9.85273 6.71963 9.72225 5.7313C9.65701 5.2697 9.24831 4.91536 8.77244 4.91536Z" fill="#5B8B7C"/>
</svg>
