<svg width="36" height="40" viewBox="0 0 36 40" fill="none" xmlns="http://www.w3.org/2000/svg">
<path d="M34.8239 30.2517L19.1547 38.9313C18.2294 39.3878 18.0215 39.3878 17.0962 38.9313L1.42873 30.2517C-0.622674 29.1167 1.08506 26.0484 3.13823 27.1851L18.1254 35.4841L33.1144 27.1834C35.1658 26.0466 36.8736 29.1149 34.8239 30.2499V30.2517ZM34.8239 21.4398L19.1547 30.1195C18.2294 30.5759 18.0215 30.5759 17.0962 30.1195L1.42873 21.4398C-0.622674 20.3048 1.08506 17.2365 3.13823 18.3733L18.1254 26.6723L33.1144 18.3715C35.1658 17.2348 36.8736 20.3048 34.8239 21.4398ZM1.40934 12.6438C1.13413 12.4916 0.904674 12.2685 0.744775 11.9976C0.584875 11.7268 0.500361 11.4181 0.500001 11.1036C0.499642 10.7891 0.58345 10.4803 0.742729 10.2091C0.902009 9.93789 1.13096 9.71426 1.40582 9.56141L17.2672 0.723113C17.5296 0.576802 17.825 0.5 18.1254 0.5C18.4259 0.5 18.7213 0.576802 18.9837 0.723113L34.8451 9.56141C35.1198 9.71442 35.3487 9.93818 35.5078 10.2095C35.6669 10.4807 35.7505 10.7897 35.75 11.1042C35.7495 11.4187 35.6648 11.7273 35.5047 11.998C35.3447 12.2688 35.1151 12.4917 34.8398 12.6438L18.9661 21.4292C18.7046 21.5743 18.4104 21.6504 18.1113 21.6504C17.8123 21.6504 17.5181 21.5743 17.2566 21.4292L1.40934 12.6438Z" fill="#E58062"/>
</svg>
