<svg width="188" height="46" viewBox="0 0 188 46" fill="none" xmlns="http://www.w3.org/2000/svg">
<rect x="0.8125" y="1.0625" width="186.375" height="43.875" rx="5.4375" stroke="#37594E" stroke-width="1.125"/>
<path d="M38.4273 22.1118L29.101 13.0333L40.967 19.6463L38.4273 22.1118ZM26.667 12.5C26.1176 12.779 25.75 13.2877 25.75 13.9481V32.0519C25.75 32.7123 26.1176 33.221 26.667 33.5L37.5103 22.9979L26.667 12.5ZM44.635 21.7549L42.146 20.356L39.3697 23.0021L42.146 25.6481L44.6857 24.2492C45.4463 23.6625 45.4463 22.3416 44.635 21.7549ZM29.101 32.9708L40.967 26.3578L38.4273 23.8923L29.101 32.9708Z" fill="#37594E"/>
<path d="M63.28 28C63.18 28 63.095 27.965 63.025 27.895C62.955 27.825 62.92 27.74 62.92 27.64V17.875C62.92 17.765 62.955 17.675 63.025 17.605C63.095 17.535 63.18 17.5 63.28 17.5H64.6C64.71 17.5 64.8 17.535 64.87 17.605C64.94 17.675 64.975 17.765 64.975 17.875V21.385L68.365 17.77C68.405 17.72 68.47 17.665 68.56 17.605C68.66 17.535 68.79 17.5 68.95 17.5H70.435C70.515 17.5 70.585 17.53 70.645 17.59C70.715 17.65 70.75 17.725 70.75 17.815C70.75 17.885 70.73 17.945 70.69 17.995L66.565 22.525L70.975 27.49C71.025 27.55 71.05 27.615 71.05 27.685C71.05 27.775 71.015 27.85 70.945 27.91C70.885 27.97 70.815 28 70.735 28H69.19C69.02 28 68.885 27.965 68.785 27.895C68.695 27.815 68.635 27.76 68.605 27.73L64.975 23.755V27.64C64.975 27.74 64.94 27.825 64.87 27.895C64.8 27.965 64.71 28 64.6 28H63.28ZM75.2281 28.15C74.4281 28.15 73.7531 28.01 73.2031 27.73C72.6631 27.45 72.2481 27.055 71.9581 26.545C71.6781 26.035 71.5181 25.44 71.4781 24.76C71.4681 24.58 71.4631 24.36 71.4631 24.1C71.4631 23.84 71.4681 23.62 71.4781 23.44C71.5181 22.75 71.6831 22.155 71.9731 21.655C72.2731 21.145 72.6931 20.75 73.2331 20.47C73.7831 20.19 74.4481 20.05 75.2281 20.05C76.0081 20.05 76.6681 20.19 77.2081 20.47C77.7581 20.75 78.1781 21.145 78.4681 21.655C78.7681 22.155 78.9381 22.75 78.9781 23.44C78.9881 23.62 78.9931 23.84 78.9931 24.1C78.9931 24.36 78.9881 24.58 78.9781 24.76C78.9381 25.44 78.7731 26.035 78.4831 26.545C78.2031 27.055 77.7881 27.45 77.2381 27.73C76.6981 28.01 76.0281 28.15 75.2281 28.15ZM75.2281 26.665C75.7581 26.665 76.1681 26.5 76.4581 26.17C76.7481 25.83 76.9081 25.335 76.9381 24.685C76.9481 24.535 76.9531 24.34 76.9531 24.1C76.9531 23.86 76.9481 23.665 76.9381 23.515C76.9081 22.875 76.7481 22.385 76.4581 22.045C76.1681 21.705 75.7581 21.535 75.2281 21.535C74.6981 21.535 74.2881 21.705 73.9981 22.045C73.7081 22.385 73.5481 22.875 73.5181 23.515C73.5081 23.665 73.5031 23.86 73.5031 24.1C73.5031 24.34 73.5081 24.535 73.5181 24.685C73.5481 25.335 73.7081 25.83 73.9981 26.17C74.2881 26.5 74.6981 26.665 75.2281 26.665ZM81.015 28C80.915 28 80.83 27.965 80.76 27.895C80.69 27.825 80.655 27.74 80.655 27.64V20.56C80.655 20.46 80.69 20.375 80.76 20.305C80.83 20.235 80.915 20.2 81.015 20.2H82.185C82.285 20.2 82.37 20.235 82.44 20.305C82.51 20.375 82.545 20.46 82.545 20.56V21.07C82.755 20.79 83.035 20.555 83.385 20.365C83.745 20.165 84.17 20.06 84.66 20.05C85.8 20.03 86.595 20.475 87.045 21.385C87.275 20.985 87.605 20.665 88.035 20.425C88.475 20.175 88.96 20.05 89.49 20.05C90.01 20.05 90.48 20.17 90.9 20.41C91.33 20.65 91.665 21.015 91.905 21.505C92.155 21.985 92.28 22.595 92.28 23.335V27.64C92.28 27.74 92.245 27.825 92.175 27.895C92.105 27.965 92.02 28 91.92 28H90.69C90.59 28 90.505 27.965 90.435 27.895C90.365 27.825 90.33 27.74 90.33 27.64V23.455C90.33 23.005 90.265 22.65 90.135 22.39C90.005 22.12 89.83 21.93 89.61 21.82C89.39 21.71 89.145 21.655 88.875 21.655C88.655 21.655 88.435 21.71 88.215 21.82C87.995 21.93 87.815 22.12 87.675 22.39C87.535 22.65 87.465 23.005 87.465 23.455V27.64C87.465 27.74 87.43 27.825 87.36 27.895C87.29 27.965 87.205 28 87.105 28H85.875C85.765 28 85.675 27.965 85.605 27.895C85.545 27.825 85.515 27.74 85.515 27.64V23.455C85.515 23.005 85.445 22.65 85.305 22.39C85.165 22.12 84.985 21.93 84.765 21.82C84.545 21.71 84.31 21.655 84.06 21.655C83.83 21.655 83.605 21.715 83.385 21.835C83.165 21.945 82.985 22.13 82.845 22.39C82.705 22.65 82.635 23.005 82.635 23.455V27.64C82.635 27.74 82.6 27.825 82.53 27.895C82.46 27.965 82.375 28 82.275 28H81.015ZM94.5502 28C94.4502 28 94.3652 27.965 94.2952 27.895C94.2252 27.825 94.1902 27.74 94.1902 27.64V20.56C94.1902 20.46 94.2252 20.375 94.2952 20.305C94.3652 20.235 94.4502 20.2 94.5502 20.2H95.7202C95.8202 20.2 95.9052 20.235 95.9752 20.305C96.0452 20.375 96.0802 20.46 96.0802 20.56V21.07C96.2902 20.79 96.5702 20.555 96.9202 20.365C97.2802 20.165 97.7052 20.06 98.1952 20.05C99.3352 20.03 100.13 20.475 100.58 21.385C100.81 20.985 101.14 20.665 101.57 20.425C102.01 20.175 102.495 20.05 103.025 20.05C103.545 20.05 104.015 20.17 104.435 20.41C104.865 20.65 105.2 21.015 105.44 21.505C105.69 21.985 105.815 22.595 105.815 23.335V27.64C105.815 27.74 105.78 27.825 105.71 27.895C105.64 27.965 105.555 28 105.455 28H104.225C104.125 28 104.04 27.965 103.97 27.895C103.9 27.825 103.865 27.74 103.865 27.64V23.455C103.865 23.005 103.8 22.65 103.67 22.39C103.54 22.12 103.365 21.93 103.145 21.82C102.925 21.71 102.68 21.655 102.41 21.655C102.19 21.655 101.97 21.71 101.75 21.82C101.53 21.93 101.35 22.12 101.21 22.39C101.07 22.65 101 23.005 101 23.455V27.64C101 27.74 100.965 27.825 100.895 27.895C100.825 27.965 100.74 28 100.64 28H99.4102C99.3002 28 99.2102 27.965 99.1402 27.895C99.0802 27.825 99.0502 27.74 99.0502 27.64V23.455C99.0502 23.005 98.9802 22.65 98.8402 22.39C98.7002 22.12 98.5202 21.93 98.3002 21.82C98.0802 21.71 97.8452 21.655 97.5952 21.655C97.3652 21.655 97.1402 21.715 96.9202 21.835C96.7002 21.945 96.5202 22.13 96.3802 22.39C96.2402 22.65 96.1702 23.005 96.1702 23.455V27.64C96.1702 27.74 96.1352 27.825 96.0652 27.895C95.9952 27.965 95.9102 28 95.8102 28H94.5502ZM111.085 28.15C109.975 28.15 109.095 27.83 108.445 27.19C107.795 26.55 107.445 25.64 107.395 24.46C107.385 24.36 107.38 24.235 107.38 24.085C107.38 23.925 107.385 23.8 107.395 23.71C107.435 22.96 107.605 22.31 107.905 21.76C108.215 21.21 108.64 20.79 109.18 20.5C109.72 20.2 110.355 20.05 111.085 20.05C111.895 20.05 112.575 20.22 113.125 20.56C113.675 20.89 114.09 21.355 114.37 21.955C114.65 22.545 114.79 23.23 114.79 24.01V24.325C114.79 24.425 114.755 24.51 114.685 24.58C114.615 24.65 114.525 24.685 114.415 24.685H109.435C109.435 24.685 109.435 24.7 109.435 24.73C109.435 24.76 109.435 24.785 109.435 24.805C109.445 25.155 109.51 25.48 109.63 25.78C109.76 26.07 109.945 26.305 110.185 26.485C110.435 26.665 110.73 26.755 111.07 26.755C111.35 26.755 111.585 26.715 111.775 26.635C111.965 26.545 112.12 26.445 112.24 26.335C112.36 26.225 112.445 26.135 112.495 26.065C112.585 25.945 112.655 25.875 112.705 25.855C112.765 25.825 112.85 25.81 112.96 25.81H114.25C114.35 25.81 114.43 25.84 114.49 25.9C114.56 25.96 114.59 26.035 114.58 26.125C114.57 26.285 114.485 26.48 114.325 26.71C114.175 26.94 113.955 27.165 113.665 27.385C113.375 27.605 113.01 27.79 112.57 27.94C112.14 28.08 111.645 28.15 111.085 28.15ZM109.435 23.425H112.75V23.38C112.75 22.99 112.685 22.65 112.555 22.36C112.425 22.07 112.235 21.84 111.985 21.67C111.735 21.5 111.435 21.415 111.085 21.415C110.735 21.415 110.435 21.5 110.185 21.67C109.935 21.84 109.745 22.07 109.615 22.36C109.495 22.65 109.435 22.99 109.435 23.38V23.425ZM116.743 28C116.643 28 116.558 27.965 116.488 27.895C116.418 27.825 116.383 27.74 116.383 27.64V20.575C116.383 20.465 116.418 20.375 116.488 20.305C116.558 20.235 116.643 20.2 116.743 20.2H117.958C118.058 20.2 118.143 20.235 118.213 20.305C118.293 20.375 118.333 20.465 118.333 20.575V21.19C118.563 20.87 118.858 20.625 119.218 20.455C119.588 20.285 120.013 20.2 120.493 20.2H121.108C121.218 20.2 121.303 20.235 121.363 20.305C121.433 20.375 121.468 20.46 121.468 20.56V21.64C121.468 21.74 121.433 21.825 121.363 21.895C121.303 21.965 121.218 22 121.108 22H119.938C119.458 22 119.083 22.135 118.813 22.405C118.553 22.675 118.423 23.045 118.423 23.515V27.64C118.423 27.74 118.388 27.825 118.318 27.895C118.248 27.965 118.158 28 118.048 28H116.743ZM128.698 28.15C128.098 28.15 127.583 28.08 127.153 27.94C126.733 27.8 126.388 27.625 126.118 27.415C125.848 27.205 125.648 26.995 125.518 26.785C125.388 26.575 125.318 26.4 125.308 26.26C125.298 26.15 125.328 26.065 125.398 26.005C125.478 25.935 125.563 25.9 125.653 25.9H126.838C126.878 25.9 126.913 25.905 126.943 25.915C126.973 25.925 127.013 25.955 127.063 26.005C127.193 26.115 127.328 26.23 127.468 26.35C127.618 26.47 127.793 26.575 127.993 26.665C128.193 26.745 128.443 26.785 128.743 26.785C129.133 26.785 129.458 26.71 129.718 26.56C129.988 26.4 130.123 26.175 130.123 25.885C130.123 25.675 130.063 25.505 129.943 25.375C129.833 25.245 129.623 25.13 129.313 25.03C129.003 24.92 128.563 24.805 127.993 24.685C127.433 24.555 126.968 24.39 126.598 24.19C126.228 23.99 125.953 23.74 125.773 23.44C125.593 23.14 125.503 22.79 125.503 22.39C125.503 22 125.618 21.63 125.848 21.28C126.088 20.92 126.438 20.625 126.898 20.395C127.368 20.165 127.948 20.05 128.638 20.05C129.178 20.05 129.648 20.12 130.048 20.26C130.448 20.39 130.778 20.555 131.038 20.755C131.308 20.955 131.513 21.16 131.653 21.37C131.793 21.57 131.868 21.745 131.878 21.895C131.888 22.005 131.858 22.095 131.788 22.165C131.718 22.225 131.638 22.255 131.548 22.255H130.438C130.388 22.255 130.343 22.245 130.303 22.225C130.263 22.205 130.223 22.18 130.183 22.15C130.073 22.05 129.953 21.945 129.823 21.835C129.693 21.725 129.533 21.63 129.343 21.55C129.163 21.46 128.923 21.415 128.623 21.415C128.243 21.415 127.953 21.5 127.753 21.67C127.553 21.83 127.453 22.035 127.453 22.285C127.453 22.455 127.498 22.605 127.588 22.735C127.688 22.855 127.883 22.97 128.173 23.08C128.463 23.19 128.903 23.305 129.493 23.425C130.163 23.545 130.693 23.725 131.083 23.965C131.483 24.195 131.763 24.465 131.923 24.775C132.093 25.075 132.178 25.41 132.178 25.78C132.178 26.23 132.043 26.635 131.773 26.995C131.513 27.355 131.123 27.64 130.603 27.85C130.093 28.05 129.458 28.15 128.698 28.15ZM134.086 28C133.986 28 133.901 27.965 133.831 27.895C133.761 27.825 133.726 27.74 133.726 27.64V20.56C133.726 20.46 133.761 20.375 133.831 20.305C133.901 20.235 133.986 20.2 134.086 20.2H135.316C135.416 20.2 135.501 20.235 135.571 20.305C135.641 20.375 135.676 20.46 135.676 20.56V21.175C135.936 20.855 136.266 20.59 136.666 20.38C137.076 20.16 137.581 20.05 138.181 20.05C138.791 20.05 139.321 20.19 139.771 20.47C140.221 20.74 140.566 21.125 140.806 21.625C141.056 22.125 141.181 22.725 141.181 23.425V27.64C141.181 27.74 141.146 27.825 141.076 27.895C141.006 27.965 140.921 28 140.821 28H139.501C139.401 28 139.316 27.965 139.246 27.895C139.176 27.825 139.141 27.74 139.141 27.64V23.515C139.141 22.935 138.996 22.48 138.706 22.15C138.426 21.82 138.016 21.655 137.476 21.655C136.956 21.655 136.541 21.82 136.231 22.15C135.921 22.48 135.766 22.935 135.766 23.515V27.64C135.766 27.74 135.731 27.825 135.661 27.895C135.591 27.965 135.506 28 135.406 28H134.086ZM145.352 28.15C144.832 28.15 144.362 28.05 143.942 27.85C143.522 27.64 143.187 27.365 142.937 27.025C142.697 26.675 142.577 26.285 142.577 25.855C142.577 25.155 142.857 24.6 143.417 24.19C143.987 23.77 144.737 23.49 145.667 23.35L147.722 23.05V22.735C147.722 22.315 147.617 21.99 147.407 21.76C147.197 21.53 146.837 21.415 146.327 21.415C145.967 21.415 145.672 21.49 145.442 21.64C145.222 21.78 145.057 21.97 144.947 22.21C144.867 22.34 144.752 22.405 144.602 22.405H143.417C143.307 22.405 143.222 22.375 143.162 22.315C143.112 22.255 143.087 22.175 143.087 22.075C143.097 21.915 143.162 21.72 143.282 21.49C143.402 21.26 143.592 21.04 143.852 20.83C144.112 20.61 144.447 20.425 144.857 20.275C145.267 20.125 145.762 20.05 146.342 20.05C146.972 20.05 147.502 20.13 147.932 20.29C148.372 20.44 148.722 20.645 148.982 20.905C149.242 21.165 149.432 21.47 149.552 21.82C149.672 22.17 149.732 22.54 149.732 22.93V27.64C149.732 27.74 149.697 27.825 149.627 27.895C149.557 27.965 149.472 28 149.372 28H148.157C148.047 28 147.957 27.965 147.887 27.895C147.827 27.825 147.797 27.74 147.797 27.64V27.055C147.667 27.245 147.492 27.425 147.272 27.595C147.052 27.755 146.782 27.89 146.462 28C146.152 28.1 145.782 28.15 145.352 28.15ZM145.862 26.725C146.212 26.725 146.527 26.65 146.807 26.5C147.097 26.35 147.322 26.12 147.482 25.81C147.652 25.49 147.737 25.09 147.737 24.61V24.295L146.237 24.535C145.647 24.625 145.207 24.77 144.917 24.97C144.627 25.17 144.482 25.415 144.482 25.705C144.482 25.925 144.547 26.115 144.677 26.275C144.817 26.425 144.992 26.54 145.202 26.62C145.412 26.69 145.632 26.725 145.862 26.725ZM152.016 28C151.916 28 151.831 27.965 151.761 27.895C151.691 27.825 151.656 27.74 151.656 27.64V20.575C151.656 20.465 151.691 20.375 151.761 20.305C151.831 20.235 151.916 20.2 152.016 20.2H153.231C153.331 20.2 153.416 20.235 153.486 20.305C153.566 20.375 153.606 20.465 153.606 20.575V21.19C153.836 20.87 154.131 20.625 154.491 20.455C154.861 20.285 155.286 20.2 155.766 20.2H156.381C156.491 20.2 156.576 20.235 156.636 20.305C156.706 20.375 156.741 20.46 156.741 20.56V21.64C156.741 21.74 156.706 21.825 156.636 21.895C156.576 21.965 156.491 22 156.381 22H155.211C154.731 22 154.356 22.135 154.086 22.405C153.826 22.675 153.696 23.045 153.696 23.515V27.64C153.696 27.74 153.661 27.825 153.591 27.895C153.521 27.965 153.431 28 153.321 28H152.016ZM161.436 28C160.836 28 160.331 27.895 159.921 27.685C159.511 27.475 159.206 27.165 159.006 26.755C158.806 26.335 158.706 25.815 158.706 25.195V21.79H157.521C157.421 21.79 157.336 21.755 157.266 21.685C157.196 21.615 157.161 21.53 157.161 21.43V20.56C157.161 20.46 157.196 20.375 157.266 20.305C157.336 20.235 157.421 20.2 157.521 20.2H158.706V17.71C158.706 17.61 158.736 17.525 158.796 17.455C158.866 17.385 158.956 17.35 159.066 17.35H160.281C160.381 17.35 160.466 17.385 160.536 17.455C160.606 17.525 160.641 17.61 160.641 17.71V20.2H162.516C162.616 20.2 162.701 20.235 162.771 20.305C162.841 20.375 162.876 20.46 162.876 20.56V21.43C162.876 21.53 162.841 21.615 162.771 21.685C162.701 21.755 162.616 21.79 162.516 21.79H160.641V25.045C160.641 25.455 160.711 25.775 160.851 26.005C161.001 26.235 161.256 26.35 161.616 26.35H162.651C162.751 26.35 162.836 26.385 162.906 26.455C162.976 26.525 163.011 26.61 163.011 26.71V27.64C163.011 27.74 162.976 27.825 162.906 27.895C162.836 27.965 162.751 28 162.651 28H161.436Z" fill="#37594E"/>
</svg>
