<svg width="12" height="16" viewBox="0 0 12 16" fill="none" xmlns="http://www.w3.org/2000/svg">
<path d="M11.5965 5.55478C11.5965 4.7737 10.9574 4.13464 10.1764 4.13464H8.04615C7.79762 4.13464 7.65561 3.85061 7.79762 3.63758C8.01064 3.28255 8.11716 2.8565 8.01065 2.39496C7.86863 1.68488 7.33608 1.11682 6.66151 0.974809C5.48989 0.726284 4.49578 1.61388 4.49578 2.71449C4.49578 3.06953 4.60229 3.35356 4.74431 3.63758C4.88632 3.85061 4.74431 4.13464 4.46028 4.13464H2.33006C1.54898 4.13464 0.909912 4.7737 0.909912 5.55478V8.04004C0.909912 8.28856 1.19394 8.43058 1.40696 8.28856C1.762 8.07554 2.18804 7.96903 2.64959 8.07554C3.35967 8.21756 3.92772 8.75011 4.06974 9.42468C4.31826 10.5608 3.43067 11.5904 2.33006 11.5904C1.97502 11.5904 1.69099 11.4839 1.40696 11.3419C1.22945 11.1999 0.945416 11.3419 0.945416 11.5904V13.7206C0.945416 14.5017 1.58448 15.1408 2.36556 15.1408H10.1764C10.9574 15.1408 11.5965 14.5017 11.5965 13.7206V5.55478Z" fill="#436918"/>
</svg>
