<svg width="19" height="18" viewBox="0 0 19 18" fill="none" xmlns="http://www.w3.org/2000/svg">
<path d="M9.75 0.25C4.7795 0.25 0.75 3.384 0.75 7.25C0.75 9.434 2.037 11.384 4.052 12.6675C3.79 13.822 3.1795 15.5345 1.75 17.25C4.629 16.77 6.4695 15.3695 7.608 14.042C8.296 14.173 9.0105 14.25 9.75 14.25C14.7205 14.25 18.75 11.116 18.75 7.25C18.75 3.384 14.7205 0.25 9.75 0.25Z" fill="#FFE046"/>
<path d="M9.75 8.25C10.3023 8.25 10.75 7.80228 10.75 7.25C10.75 6.69772 10.3023 6.25 9.75 6.25C9.19772 6.25 8.75 6.69772 8.75 7.25C8.75 7.80228 9.19772 8.25 9.75 8.25Z" fill="white"/>
<path d="M13.75 8.25C14.3023 8.25 14.75 7.80228 14.75 7.25C14.75 6.69772 14.3023 6.25 13.75 6.25C13.1977 6.25 12.75 6.69772 12.75 7.25C12.75 7.80228 13.1977 8.25 13.75 8.25Z" fill="white"/>
<path d="M5.75 8.25C6.30228 8.25 6.75 7.80228 6.75 7.25C6.75 6.69772 6.30228 6.25 5.75 6.25C5.19772 6.25 4.75 6.69772 4.75 7.25C4.75 7.80228 5.19772 8.25 5.75 8.25Z" fill="white"/>
</svg>
